<svg xmlns="http://www.w3.org/2000/svg" width="1920" height="600" viewBox="0 0 1920 600">
  <defs>
    <linearGradient id="contactGrad" x1="0%" y1="0%" x2="100%" y2="100%">
      <stop offset="0%" style="stop-color:#1e293b;stop-opacity:1" />
      <stop offset="100%" style="stop-color:#0f172a;stop-opacity:1" />
    </linearGradient>
  </defs>
  
  <rect width="1920" height="600" fill="url(#contactGrad)"/>
  
  <!-- Contact Icons -->
  <g fill="#14b8a6" opacity="0.2">
    <circle cx="200" cy="300" r="100"/>
    <circle cx="1720" cy="300" r="100"/>
    <circle cx="960" cy="100" r="80"/>
    <circle cx="960" cy="500" r="80"/>
  </g>
  
  <!-- Phone Icon -->
  <g transform="translate(760, 220)" fill="none" stroke="#14b8a6" stroke-width="3">
    <path d="M22 17.5c-2.5 0-5-1-7-3l-2 2c-2.5-2.5-4.5-5.5-6-9l2.5-2c-2-2-3-4.5-3-7 0-1.5 1-2.5 2.5-2.5h5c1.5 0 2.5 1 2.5 2.5v5c0 1.5-1 2.5-2.5 2.5h-2c1 3 3 5 6 6v-2c0-1.5 1-2.5 2.5-2.5h5c1.5 0 2.5 1 2.5 2.5v5c0 1.5-1 2.5-2.5 2.5-2.5 0-5-1-7-3l-2 2c-2.5-2.5-4.5-5.5-6-9l2.5-2c-2-2-3-4.5-3-7z"/>
  </g>
  
  <text x="960" y="420" font-family="Arial, sans-serif" font-size="48" font-weight="bold" fill="white" text-anchor="middle">
    İletişim
  </text>
  <text x="960" y="470" font-family="Arial, sans-serif" font-size="24" fill="#14b8a6" text-anchor="middle">
    Bize Ulaşın
  </text>
</svg>
