<svg xmlns="http://www.w3.org/2000/svg" width="1920" height="600" viewBox="0 0 1920 600">
  <defs>
    <linearGradient id="catalogGrad" x1="0%" y1="0%" x2="100%" y2="100%">
      <stop offset="0%" style="stop-color:#1e293b;stop-opacity:1" />
      <stop offset="100%" style="stop-color:#0f172a;stop-opacity:1" />
    </linearGradient>
  </defs>
  
  <rect width="1920" height="600" fill="url(#catalogGrad)"/>
  
  <g fill="none" stroke="#14b8a6" stroke-width="3" opacity="0.4">
    <path d="M300 250 L300 350 M300 300 L250 350 M300 300 L350 350"/>
    <path d="M600 250 L600 350 M600 300 L550 350 M600 300 L650 350"/>
    <path d="M900 250 L900 350 M900 300 L850 350 M900 300 L950 350"/>
    <path d="M1200 250 L1200 350 M1200 300 L1150 350 M1200 300 L1250 350"/>
    <path d="M1500 250 L1500 350 M1500 300 L1450 350 M1500 300 L1550 350"/>
  </g>
  
  <g fill="none" stroke="#14b8a6" stroke-width="2" opacity="0.3">
    <rect x="200" y="150" width="200" height="280"/>
    <rect x="500" y="150" width="200" height="280"/>
    <rect x="800" y="150" width="200" height="280"/>
    <rect x="1100" y="150" width="200" height="280"/>
    <rect x="1400" y="150" width="200" height="280"/>
  </g>
  
  <text x="960" y="420" font-family="Arial, sans-serif" font-size="48" font-weight="bold" fill="white" text-anchor="middle">
    Katalog
  </text>
  <text x="960" y="470" font-family="Arial, sans-serif" font-size="24" fill="#14b8a6" text-anchor="middle">
    Teknik Dokümanlar
  </text>
</svg>
